<svg t="1669305551165" class="icon" viewBox="0 0 1024 1024" version="1.1" xmlns="http://www.w3.org/2000/svg" p-id="4940" width="512" height="512"><path d="M196.4 841.6c-5 0-9-4-9-9V194.9c0-5 4-9 9-9h637.7c5 0 9 4 9 9v637.7c0 5-4 9-9 9H196.4z" fill="#F7D7FF" p-id="4941"></path><path d="M834.1 194.9v637.7H196.4V194.9h637.7m0-18H196.4c-9.9 0-18 8.1-18 18v637.7c0 9.9 8.1 18 18 18h637.7c9.9 0 18-8.1 18-18V194.9c0-9.9-8.1-18-18-18z" fill="#330867" p-id="4942"></path><path d="M834.1 832.6H196.4v-90.3s0 63.7 318.8 63.7S834 742.3 834 742.3v90.3z" fill="#F0BEFC" p-id="4943"></path><path d="M920.9 355.2h-78.2c-5 0-9-4-9-9s4-9 9-9h78.2c5 0 9 4 9 9s-4 9-9 9zM920.9 422.2h-78.2c-5 0-9-4-9-9s4-9 9-9h78.2c5 0 9 4 9 9s-4 9-9 9zM920.9 489.2h-78.2c-5 0-9-4-9-9s4-9 9-9h78.2c5 0 9 4 9 9s-4 9-9 9zM920.9 556.2h-78.2c-5 0-9-4-9-9s4-9 9-9h78.2c5 0 9 4 9 9s-4 9-9 9zM920.9 623.2h-78.2c-5 0-9-4-9-9s4-9 9-9h78.2c5 0 9 4 9 9s-4 9-9 9zM920.9 690.2h-78.2c-5 0-9-4-9-9s4-9 9-9h78.2c5 0 9 4 9 9s-4 9-9 9zM347.2 193.3c-5 0-9-4-9-9v-78.2c0-5 4-9 9-9s9 4 9 9v78.2c0 5-4 9-9 9zM414.2 193.3c-5 0-9-4-9-9v-78.2c0-5 4-9 9-9s9 4 9 9v78.2c0 5-4 9-9 9zM481.2 193.3c-5 0-9-4-9-9v-78.2c0-5 4-9 9-9s9 4 9 9v78.2c0 5-4 9-9 9zM548.2 193.3c-5 0-9-4-9-9v-78.2c0-5 4-9 9-9s9 4 9 9v78.2c0 5-4 9-9 9zM615.2 193.3c-5 0-9-4-9-9v-78.2c0-5 4-9 9-9s9 4 9 9v78.2c0 5-4 9-9 9zM682.2 193.3c-5 0-9-4-9-9v-78.2c0-5 4-9 9-9s9 4 9 9v78.2c0 5-4 9-9 9z" fill="#330867" p-id="4944"></path><path d="M185.3 688.8h-78.2c-5 0-9-4-9-9s4-9 9-9h78.2c5 0 9 4 9 9s-4 9-9 9zM185.3 621.8h-78.2c-5 0-9-4-9-9s4-9 9-9h78.2c5 0 9 4 9 9s-4 9-9 9zM185.3 554.8h-78.2c-5 0-9-4-9-9s4-9 9-9h78.2c5 0 9 4 9 9s-4 9-9 9zM185.3 487.8h-78.2c-5 0-9-4-9-9s4-9 9-9h78.2c5 0 9 4 9 9s-4 9-9 9zM185.3 420.8h-78.2c-5 0-9-4-9-9s4-9 9-9h78.2c5 0 9 4 9 9s-4 9-9 9zM185.3 353.8h-78.2c-5 0-9-4-9-9s4-9 9-9h78.2c5 0 9 4 9 9s-4 9-9 9z" fill="#330867" p-id="4945"></path><path d="M680.8 928.9c-5 0-9-4-9-9v-78.2c0-5 4-9 9-9s9 4 9 9v78.2c0 5-4 9-9 9zM613.8 928.9c-5 0-9-4-9-9v-78.2c0-5 4-9 9-9s9 4 9 9v78.2c0 5-4 9-9 9zM546.8 928.9c-5 0-9-4-9-9v-78.2c0-5 4-9 9-9s9 4 9 9v78.2c0 5-4 9-9 9zM479.8 928.9c-5 0-9-4-9-9v-78.2c0-5 4-9 9-9s9 4 9 9v78.2c0 5-4 9-9 9zM412.8 928.9c-5 0-9-4-9-9v-78.2c0-5 4-9 9-9s9 4 9 9v78.2c0 5-4 9-9 9zM345.8 928.9c-5 0-9-4-9-9v-78.2c0-5 4-9 9-9s9 4 9 9v78.2c0 5-4 9-9 9z" fill="#330867" p-id="4946"></path><path d="M695.5 774.2H268c-5 0-9-4-9-9V628.9c0-5 4-9 9-9 30.8 0 44.9-20 44.9-38.5s-14-38.5-44.9-38.5c-5 0-9-4-9-9v-277c0-5 4-9 9-9h167.4c5 0 9 4 9 9 0 19.5 16.9 24.6 26.9 24.6s26.9-5.2 26.9-24.6c0-5 4-9 9-9h239.2c5 0 9 4 9 9V669c0 5-4 9-9 9H414.2c-5 0-9-4-9-9V463.7c0-5 4-9 9-9s9 4 9 9V660h314.3V265.9H515.4c-4.3 22.1-24.3 33.6-44.1 33.6s-39.8-11.5-44.1-33.6H277v259.5c35.4 3.8 53.9 30.1 53.9 56s-18.5 52.2-53.9 56v118.8h418.5c5 0 9 4 9 9s-4 9-9 9z" fill="#330867" p-id="4947"></path><path d="M412.8 495.3c-17.4 0-31.6-14.2-31.6-31.6s14.2-31.6 31.6-31.6c17.4 0 31.6 14.2 31.6 31.6s-14.2 31.6-31.6 31.6z" fill="#66C1FF" p-id="4948"></path><path d="M412.8 441c12.5 0 22.6 10.1 22.6 22.6s-10.1 22.6-22.6 22.6c-12.5 0-22.6-10.1-22.6-22.6s10.1-22.6 22.6-22.6m0-18c-22.4 0-40.6 18.2-40.6 40.6s18.2 40.6 40.6 40.6c22.4 0 40.6-18.2 40.6-40.6S435.2 423 412.8 423z" fill="#330867" p-id="4949"></path><path d="M599.5 678c-5 0-9-4-9-9V566.9c-22.7-3.8-34.6-22.2-34.6-40.3 0-18.1 11.8-36.4 34.6-40.3V384.9c0-5 4-9 9-9s9 4 9 9v109.7c0 5-4 9-9 9-17.7 0-25.6 11.6-25.6 23s7.9 23 25.6 23c5 0 9 4 9 9V669c0 5-4 9-9 9z" fill="#330867" p-id="4950"></path><path d="M599.5 412.3c-17.4 0-31.6-14.2-31.6-31.6s14.2-31.6 31.6-31.6c17.4 0 31.6 14.2 31.6 31.6s-14.2 31.6-31.6 31.6z" fill="#FC6B79" p-id="4951"></path><path d="M599.5 358c12.5 0 22.6 10.1 22.6 22.6 0 12.5-10.1 22.6-22.6 22.6-12.5 0-22.6-10.1-22.6-22.6 0-12.5 10.1-22.6 22.6-22.6m0-18c-22.4 0-40.6 18.2-40.6 40.6 0 22.4 18.2 40.6 40.6 40.6 22.4 0 40.6-18.2 40.6-40.6 0-22.4-18.2-40.6-40.6-40.6z" fill="#330867" p-id="4952"></path><path d="M683.4 796.9c-17.4 0-31.6-14.2-31.6-31.6 0-17.4 14.2-31.6 31.6-31.6 17.4 0 31.6 14.2 31.6 31.6 0 17.4-14.1 31.6-31.6 31.6z" fill="#FFE08A" p-id="4953"></path><path d="M683.4 742.6c12.5 0 22.6 10.1 22.6 22.6s-10.1 22.6-22.6 22.6-22.6-10.1-22.6-22.6 10.1-22.6 22.6-22.6m0-18c-22.4 0-40.6 18.2-40.6 40.6s18.2 40.6 40.6 40.6c22.4 0 40.6-18.2 40.6-40.6s-18.2-40.6-40.6-40.6z" fill="#330867" p-id="4954"></path></svg>